<?xml version="1.0" standalone="no"?><!DOCTYPE svg PUBLIC "-//W3C//DTD SVG 1.1//EN" "http://www.w3.org/Graphics/SVG/1.1/DTD/svg11.dtd"><svg t="1612683856795" class="icon" viewBox="0 0 1024 1024" version="1.1" xmlns="http://www.w3.org/2000/svg" p-id="17458" xmlns:xlink="http://www.w3.org/1999/xlink" width="128" height="128"><defs><style type="text/css"></style></defs><path d="M755.2 101.888C692.736 39.936 606.72 1.536 512 1.536S330.752 39.936 268.8 102.4C206.336 164.352 167.936 250.368 167.936 345.088c0 158.208 256.512 528.896 344.064 678.912 87.552-149.504 344.064-520.704 344.064-678.912 0-94.72-38.4-180.736-100.864-243.2z m-134.144 352.256c-27.648 27.648-66.56 45.056-109.056 45.056s-81.408-17.408-109.056-45.056-45.056-66.56-45.056-109.056 17.408-80.896 45.056-109.056c27.648-27.648 66.56-45.056 109.056-45.056s80.896 17.408 109.056 45.056c27.648 28.16 45.056 66.56 45.056 109.056 0 43.008-17.408 81.408-45.056 109.056z" fill="#ed6d00" p-id="17459"></path></svg>