<svg xmlns="http://www.w3.org/2000/svg" viewBox="0 0 43 43"><defs><style>.cls-1{fill:#ccc;}</style></defs><title>资源 8-3</title><g id="图层_2" data-name="图层 2"><g id="图层_1-2" data-name="图层 1"><path class="cls-1" d="M40.85,6.63A6.54,6.54,0,0,0,34.4,0H8.6A6.54,6.54,0,0,0,2.15,6.63L0,36.37A6.54,6.54,0,0,0,6.45,43h30.1A6.54,6.54,0,0,0,43,36.37q-.7-9.69-1-14.54l-1.1-15.2ZM34,8.05a10.11,10.11,0,0,1-3.54,7.58,13.23,13.23,0,0,1-17.1,0A10.06,10.06,0,0,1,9.85,8.05a1.49,1.49,0,1,1,3,0c0,4.45,4.09,8.07,9.12,8.07s9.11-3.62,9.12-8.07a1.4,1.4,0,0,1,1.45-1.48A1.49,1.49,0,0,1,34,8.05Z"/></g></g></svg>