<svg xmlns="http://www.w3.org/2000/svg" viewBox="0 0 42.99 41.88"><defs><style>.cls-1{fill:#ed6d00;}</style></defs><title>资源 4-3</title><g id="图层_2" data-name="图层 2"><g id="图层_1-2" data-name="图层 1"><path class="cls-1" d="M40.3,41.88H2.61a2.77,2.77,0,0,1-2-1,2.68,2.68,0,0,1-.49-2.24A22.19,22.19,0,0,1,19.84,20.56a27,27,0,0,1,10.32,1.85,18.4,18.4,0,0,1,1.95,1A22.33,22.33,0,0,1,42.92,38.67a2.46,2.46,0,0,1-.58,2.24,2.73,2.73,0,0,1-2,1Z"/><path class="cls-1" d="M21.51,0A10.23,10.23,0,1,0,31.74,10.23,10.23,10.23,0,0,0,21.51,0Z"/></g></g></svg>