<svg xmlns="http://www.w3.org/2000/svg" viewBox="0 0 42.94 42.94"><defs><style>.cls-1{fill:#ed6d00;}</style></defs><title>资源 3-3</title><g id="图层_2" data-name="图层 2"><g id="图层_1-2" data-name="图层 1"><path class="cls-1" d="M19.38,20.14h-9.3A10.07,10.07,0,1,1,20.15,10.07v9.3a.78.78,0,0,1-.77.77Zm13.48,0h-9.3a.76.76,0,0,1-.76-.76v-9.3A10.07,10.07,0,1,1,32.86,20.14ZM10.07,42.94a10.07,10.07,0,0,1,0-20.14h9.3a.76.76,0,0,1,.76.76v9.3A10.08,10.08,0,0,1,10.07,42.94Zm22.79,0A10.1,10.1,0,0,1,22.79,32.87v-9.3a.76.76,0,0,1,.76-.76h9.3a10.07,10.07,0,0,1,0,20.13Z"/></g></g></svg>